<svg
  xmlns="http://www.w3.org/2000/svg"
  viewBox="0 0 64 64"
  fill="none"
>
  <!-- Fig -->
  <path
    d="M32 14
       C22 14 16 23 16 33
       C16 45 24 54 32 54
       C40 54 48 45 48 33
       C48 23 42 14 32 14Z"
    fill="#5B2A6E"
  />

  <!-- Fig highlight -->
  <path
    d="M25 24
       C21 29 21 38 25 44"
    stroke="#8B5FBF"
    stroke-width="2.5"
    stroke-linecap="round"
  />

  <!-- Stem -->
  <path
    d="M32 14
       C32 10 35 8 39 8"
    stroke="#6D4C41"
    stroke-width="3"
    stroke-linecap="round"
  />

  <!-- Leaf -->
  <path
    d="M38 9
       C45 8 48 13 44 18
       C39 17 36 14 38 9Z"
    fill="#4CAF50"
  />

  <!-- Wheat -->
  <g
    stroke="#D9A441"
    stroke-width="2"
    stroke-linecap="round"
    stroke-linejoin="round"
  >
    <path d="M32 20V48"/>
    <path d="M32 24l4-3"/>
    <path d="M32 28l4-3"/>
    <path d="M32 32l4-3"/>
    <path d="M32 36l4-3"/>
    <path d="M32 40l4-3"/>

    <path d="M32 24l-4-3"/>
    <path d="M32 28l-4-3"/>
    <path d="M32 32l-4-3"/>
    <path d="M32 36l-4-3"/>
    <path d="M32 40l-4-3"/>
  </g>
</svg>